<?xml version="1.0" standalone="no"?>
<!DOCTYPE svg PUBLIC "-//W3C//DTD SVG 20010904//EN"
 "http://www.w3.org/TR/2001/REC-SVG-20010904/DTD/svg10.dtd">
<svg version="1.0" xmlns="http://www.w3.org/2000/svg"
 width="373.000000pt" height="273.000000pt" viewBox="0 0 373.000000 273.000000"
 preserveAspectRatio="xMidYMid meet">
<metadata>
Created by potrace 1.16, written by Peter Selinger 2001-2019
</metadata>
<g transform="translate(0.000000,273.000000) scale(0.100000,-0.100000)"
fill="#000000" stroke="none">
<path d="M2384 2469 c-102 -9 -156 -24 -217 -57 -80 -43 -78 -30 -75 -473 l3
-391 31 -28 c42 -37 129 -68 226 -82 l78 -11 0 -393 0 -392 -33 -20 c-58 -34
-67 -68 -67 -260 0 -159 1 -171 23 -202 64 -96 200 -96 264 0 22 31 23 43 23
208 0 159 -2 178 -21 208 -11 19 -34 42 -50 51 l-29 17 0 392 0 391 78 11
c103 14 189 47 230 88 l32 32 0 392 c0 373 -1 393 -20 419 -52 74 -273 120
-476 100z m291 -119 c22 -6 52 -16 68 -22 l27 -11 -2 -365 -3 -366 -49 -18
c-101 -38 -345 -38 -456 -1 l-55 18 -3 367 -2 366 50 17 c28 9 72 21 98 25 60
11 274 5 327 -10z m-147 -1828 c19 -25 17 -281 -4 -310 -20 -28 -58 -28 -78 0
-21 29 -23 285 -3 310 23 30 60 30 85 0z"/>
<path d="M2570 2187 l-25 -13 -3 -204 c-1 -113 0 -215 3 -227 6 -27 45 -39 74
-23 21 11 21 16 19 232 -3 208 -4 221 -23 234 -16 11 -25 11 -45 1z"/>
<path d="M2342 2178 c-9 -9 -12 -74 -12 -230 0 -205 1 -218 19 -228 27 -14 47
-13 65 6 14 13 16 48 16 228 0 227 -2 236 -50 236 -14 0 -31 -5 -38 -12z"/>
<path d="M1250 2404 c-121 -32 -229 -104 -300 -200 l-45 -61 -65 -8 c-299 -34
-519 -272 -520 -561 0 -76 31 -199 67 -267 45 -85 165 -198 256 -241 l77 -37
0 -363 c0 -354 1 -364 21 -390 73 -92 350 -143 723 -133 269 7 435 36 534 94
69 40 72 53 72 358 0 252 -1 266 -20 285 -25 25 -45 25 -70 0 -19 -19 -20 -33
-20 -284 l0 -264 -47 -20 c-108 -46 -403 -79 -613 -68 -215 12 -399 44 -457
82 l-23 14 0 335 0 335 58 0 c85 0 181 24 258 64 106 55 135 86 114 126 -19
36 -47 34 -118 -8 -95 -58 -165 -75 -276 -70 -76 3 -102 9 -159 36 -95 44
-178 126 -225 221 -36 74 -37 77 -37 195 0 114 2 125 31 186 79 168 241 270
425 270 l67 0 47 70 c80 120 185 189 320 210 183 29 350 -54 472 -233 31 -44
35 -47 77 -47 83 0 105 67 34 105 -21 11 -50 38 -66 60 -68 95 -191 179 -308
209 -76 20 -210 20 -284 0z"/>
<path d="M566 1547 c-29 -21 -22 -61 20 -118 73 -100 202 -171 335 -186 62 -6
89 9 89 52 0 32 -32 51 -100 59 -77 8 -171 57 -217 113 -84 100 -92 106 -127
80z"/>
<path d="M1958 1389 c-36 -19 -82 -33 -124 -38 -90 -11 -122 -53 -74 -96 19
-17 28 -18 94 -8 73 10 174 49 208 80 24 22 23 69 -1 83 -28 14 -39 12 -103
-21z"/>
<path d="M1547 1212 c-10 -10 -17 -28 -17 -39 0 -38 91 -99 210 -139 68 -23
232 -26 305 -5 108 31 235 112 235 150 0 22 -31 51 -53 51 -9 0 -43 -17 -76
-39 -127 -82 -302 -95 -434 -33 -38 17 -80 41 -94 52 -32 25 -55 25 -76 2z"/>
<path d="M972 878 c-17 -17 -17 -439 0 -456 15 -15 61 -15 76 0 17 17 17 439
0 456 -15 15 -61 15 -76 0z"/>
</g>
</svg>
